<svg xmlns="http://www.w3.org/2000/svg" viewBox="0 0 1200 650" shape-rendering="crispEdges"><rect width="1200" height="650" fill="#182a20"/><rect y="350" width="1200" height="300" fill="#7d875b"/><path d="M0 350L180 250 330 330 520 210 700 330 900 190 1200 330V430H0Z" fill="#425844"/><path d="M0 390L240 315 430 370 640 285 840 365 1040 270 1200 330V450H0Z" fill="#596c4d"/><path d="M0 500Q300 430 600 500T1200 470V650H0Z" fill="#9a915e"/><path d="M0 540Q250 510 470 545T900 535T1200 550V650H0Z" fill="#b2a36b"/><path d="M0 560Q230 540 460 570T920 560T1200 575" fill="none" stroke="#668a88" stroke-width="18"/><g fill="#5b4636"><rect x="120" y="430" width="16" height="85"/><rect x="1020" y="405" width="18" height="110"/></g><g fill="#39533e"><circle cx="128" cy="415" r="55"/><circle cx="1050" cy="390" r="70"/></g><g fill="#6d543b"><rect x="690" y="385" width="125" height="75"/><path d="M675 385L750 335 830 385Z" fill="#5b4038"/><rect x="740" y="420" width="25" height="40" fill="#302b25"/></g><g fill="#c2a968"><rect x="850" y="430" width="5" height="75"/><rect x="875" y="430" width="5" height="75"/><rect x="900" y="430" width="5" height="75"/><rect x="925" y="430" width="5" height="75"/><rect x="850" y="455" width="80" height="5"/></g><g fill="#1e2b23"><rect x="470" y="455" width="70" height="26"/><rect x="485" y="440" width="35" height="20"/><circle cx="485" cy="485" r="12"/><circle cx="525" cy="485" r="12"/></g><rect width="1200" height="90" fill="#101913" opacity=".45"/></svg>